<?xml version="1.0" encoding="UTF-8"?>
<svg id="Layer_2" data-name="Layer 2" xmlns="http://www.w3.org/2000/svg" xmlns:xlink="http://www.w3.org/1999/xlink" viewBox="0 0 170.71 203.17">
  <defs>
    <style>
      .cls-1 {
        opacity: .08;
      }

      .cls-1, .cls-2 {
        fill: #fff;
      }

      .cls-3 {
        fill: url(#linear-gradient);
      }

      .cls-4 {
        fill: #040002;
      }

      .cls-5 {
        fill: #cac2e0;
      }

      .cls-6 {
        fill: #4153a4;
      }

      .cls-7 {
        fill: url(#linear-gradient-8);
      }

      .cls-8 {
        fill: url(#linear-gradient-9);
      }

      .cls-9 {
        fill: url(#linear-gradient-3);
      }

      .cls-10 {
        fill: url(#linear-gradient-4);
      }

      .cls-11 {
        fill: url(#linear-gradient-2);
      }

      .cls-12 {
        fill: url(#linear-gradient-7);
      }

      .cls-13 {
        fill: url(#linear-gradient-5);
      }

      .cls-14 {
        fill: url(#linear-gradient-14);
      }

      .cls-15 {
        fill: url(#linear-gradient-18);
      }

      .cls-16 {
        fill: url(#linear-gradient-22);
      }

      .cls-17 {
        fill: url(#linear-gradient-20);
      }

      .cls-18 {
        fill: url(#linear-gradient-21);
      }

      .cls-19 {
        fill: url(#linear-gradient-15);
      }

      .cls-20 {
        fill: url(#linear-gradient-19);
      }

      .cls-21 {
        fill: url(#linear-gradient-16);
      }

      .cls-22 {
        fill: url(#linear-gradient-17);
      }

      .cls-23 {
        fill: url(#linear-gradient-13);
      }

      .cls-24 {
        fill: url(#linear-gradient-12);
      }

      .cls-25 {
        fill: url(#linear-gradient-10);
      }

      .cls-26 {
        fill: url(#linear-gradient-11);
      }

      .cls-27 {
        fill: url(#linear-gradient-6);
        opacity: .25;
      }
    </style>
    <linearGradient id="linear-gradient" x1="115.59" y1="119.38" x2="115.59" y2="234.6" gradientUnits="userSpaceOnUse">
      <stop offset=".27" stop-color="#fdd900"/>
      <stop offset=".35" stop-color="#fbca03"/>
      <stop offset=".5" stop-color="#f8a50d"/>
      <stop offset=".7" stop-color="#f3691d"/>
      <stop offset=".78" stop-color="#f25224"/>
    </linearGradient>
    <linearGradient id="linear-gradient-2" x1="110.57" y1="105.42" x2="110.57" y2="196.02" gradientUnits="userSpaceOnUse">
      <stop offset=".17" stop-color="#fdd900"/>
      <stop offset=".25" stop-color="#fbd101"/>
      <stop offset=".36" stop-color="#f9be05"/>
      <stop offset=".49" stop-color="#f49e0b"/>
      <stop offset=".64" stop-color="#ee7114"/>
      <stop offset=".8" stop-color="#e63a20"/>
    </linearGradient>
    <linearGradient id="linear-gradient-3" x1="120.49" y1="109.83" x2="120.49" y2="210.01" gradientUnits="userSpaceOnUse">
      <stop offset=".16" stop-color="#fdd900"/>
      <stop offset=".23" stop-color="#fcd101"/>
      <stop offset=".35" stop-color="#fabb06"/>
      <stop offset=".48" stop-color="#f7990e"/>
      <stop offset=".64" stop-color="#f26919"/>
      <stop offset=".76" stop-color="#ef3f23"/>
    </linearGradient>
    <linearGradient id="linear-gradient-4" x1="100.53" y1="105.67" x2="100.53" y2="197.94" gradientUnits="userSpaceOnUse">
      <stop offset=".1" stop-color="#fdd900"/>
      <stop offset=".39" stop-color="#f8a40f"/>
      <stop offset=".78" stop-color="#f26322"/>
    </linearGradient>
    <linearGradient id="linear-gradient-5" x1="75.72" y1="48.77" x2="93.17" y2="177.16" gradientUnits="userSpaceOnUse">
      <stop offset="0" stop-color="#cc469b"/>
      <stop offset=".13" stop-color="#af489c"/>
      <stop offset=".36" stop-color="#844c9f"/>
      <stop offset=".56" stop-color="#654ea1"/>
      <stop offset=".73" stop-color="#5150a2"/>
      <stop offset=".85" stop-color="#4b51a3"/>
    </linearGradient>
    <linearGradient id="linear-gradient-6" x1="77.7" y1="49.17" x2="95.15" y2="177.56" xlink:href="#linear-gradient-5"/>
    <linearGradient id="linear-gradient-7" x1="101.11" y1="76.4" x2="101.11" y2="182.93" gradientUnits="userSpaceOnUse">
      <stop offset=".28" stop-color="#cc469b"/>
      <stop offset=".81" stop-color="#4b51a3"/>
    </linearGradient>
    <linearGradient id="linear-gradient-8" x1="101.76" y1="88.98" x2="145.84" y2="88.98" gradientUnits="userSpaceOnUse">
      <stop offset=".21" stop-color="#f68d1e"/>
      <stop offset=".27" stop-color="#f4761f"/>
      <stop offset=".35" stop-color="#f25e20"/>
      <stop offset=".44" stop-color="#f04b20"/>
      <stop offset=".54" stop-color="#ef3d21"/>
      <stop offset=".68" stop-color="#ef3621"/>
      <stop offset=".94" stop-color="#ef3422"/>
    </linearGradient>
    <linearGradient id="linear-gradient-9" x1="103.31" y1="59.75" x2="188.08" y2="89.48" gradientUnits="userSpaceOnUse">
      <stop offset=".23" stop-color="#ef3424"/>
      <stop offset=".3" stop-color="#ef3a22"/>
      <stop offset=".39" stop-color="#f14d1e"/>
      <stop offset=".51" stop-color="#f36d17"/>
      <stop offset=".63" stop-color="#f7980d"/>
      <stop offset=".77" stop-color="#fcd001"/>
      <stop offset=".79" stop-color="#fdd900"/>
    </linearGradient>
    <linearGradient id="linear-gradient-10" x1="129.75" y1="80.55" x2="172.4" y2="123.19" gradientUnits="userSpaceOnUse">
      <stop offset="0" stop-color="#fdd900"/>
      <stop offset=".03" stop-color="#fbc803"/>
      <stop offset=".12" stop-color="#f8a10b"/>
      <stop offset=".21" stop-color="#f57f12"/>
      <stop offset=".3" stop-color="#f36318"/>
      <stop offset=".41" stop-color="#f14e1c"/>
      <stop offset=".52" stop-color="#ef3f1f"/>
      <stop offset=".66" stop-color="#ef3621"/>
      <stop offset=".86" stop-color="#ef3422"/>
    </linearGradient>
    <linearGradient id="linear-gradient-11" x1="103.71" y1="84.68" x2="165.94" y2="84.68" gradientUnits="userSpaceOnUse">
      <stop offset=".06" stop-color="#ef3422"/>
      <stop offset=".28" stop-color="#ef3621"/>
      <stop offset=".43" stop-color="#ef3f1f"/>
      <stop offset=".55" stop-color="#f14e1c"/>
      <stop offset=".67" stop-color="#f36318"/>
      <stop offset=".77" stop-color="#f57f12"/>
      <stop offset=".87" stop-color="#f8a10b"/>
      <stop offset=".97" stop-color="#fbc803"/>
      <stop offset="1" stop-color="#fdd900"/>
    </linearGradient>
    <linearGradient id="linear-gradient-12" x1="115.04" y1="55.3" x2="202.96" y2="99.14" gradientUnits="userSpaceOnUse">
      <stop offset="0" stop-color="#ef4323"/>
      <stop offset=".04" stop-color="#ef4821"/>
      <stop offset=".25" stop-color="#f2631b"/>
      <stop offset=".37" stop-color="#f36e19"/>
      <stop offset=".41" stop-color="#f37517"/>
      <stop offset=".48" stop-color="#f58a12"/>
      <stop offset=".55" stop-color="#f8ac0a"/>
      <stop offset=".63" stop-color="#fdd900"/>
    </linearGradient>
    <linearGradient id="linear-gradient-13" x1="100.53" y1="68.47" x2="185.02" y2="98.1" gradientUnits="userSpaceOnUse">
      <stop offset="0" stop-color="#ef4323"/>
      <stop offset=".05" stop-color="#f2641b" stop-opacity=".89"/>
      <stop offset=".13" stop-color="#f68e11" stop-opacity=".75"/>
      <stop offset=".22" stop-color="#f9af09" stop-opacity=".64"/>
      <stop offset=".3" stop-color="#fbc604" stop-opacity=".56"/>
      <stop offset=".4" stop-color="#fcd401" stop-opacity=".51"/>
      <stop offset=".5" stop-color="#fdd900" stop-opacity=".5"/>
    </linearGradient>
    <linearGradient id="linear-gradient-14" x1="122.6" y1="98.15" x2="135.1" y2="76.57" gradientUnits="userSpaceOnUse">
      <stop offset=".09" stop-color="#fdd900"/>
      <stop offset=".16" stop-color="#fcd103"/>
      <stop offset=".26" stop-color="#fabe0c"/>
      <stop offset=".38" stop-color="#f89e1a"/>
      <stop offset=".39" stop-color="#f89b1c"/>
      <stop offset=".56" stop-color="#f4711e"/>
      <stop offset=".76" stop-color="#f04520"/>
      <stop offset=".86" stop-color="#ef3422"/>
    </linearGradient>
    <linearGradient id="linear-gradient-15" x1="109.47" y1="112.4" x2="109.47" y2="163.85" gradientUnits="userSpaceOnUse">
      <stop offset=".27" stop-color="#c94799"/>
      <stop offset=".37" stop-color="#c54798"/>
      <stop offset=".46" stop-color="#b94898"/>
      <stop offset=".55" stop-color="#a64997"/>
      <stop offset=".64" stop-color="#8b4b97"/>
      <stop offset=".65" stop-color="#864c97"/>
    </linearGradient>
    <linearGradient id="linear-gradient-16" x1="109.47" y1="112.4" x2="109.47" y2="163.85" gradientUnits="userSpaceOnUse">
      <stop offset=".43" stop-color="#c94799"/>
      <stop offset=".5" stop-color="#c54798"/>
      <stop offset=".57" stop-color="#ba4898"/>
      <stop offset=".63" stop-color="#a74998"/>
      <stop offset=".7" stop-color="#8e4b97"/>
      <stop offset=".71" stop-color="#864c97"/>
    </linearGradient>
    <linearGradient id="linear-gradient-17" x1="90.28" y1="91.1" x2="90.28" y2="166.69" gradientUnits="userSpaceOnUse">
      <stop offset="0" stop-color="#c44699"/>
      <stop offset=".13" stop-color="#ac489b"/>
      <stop offset=".39" stop-color="#6e4ea0"/>
      <stop offset=".47" stop-color="#5b50a2"/>
      <stop offset=".71" stop-color="#5b50a2"/>
      <stop offset=".83" stop-color="#5550a2"/>
      <stop offset=".99" stop-color="#4451a2"/>
      <stop offset="1" stop-color="#4352a3"/>
    </linearGradient>
    <linearGradient id="linear-gradient-18" x1="78.09" y1="51.97" x2="71.96" y2="113.69" gradientUnits="userSpaceOnUse">
      <stop offset=".2" stop-color="#c94799"/>
      <stop offset=".3" stop-color="#c34799"/>
      <stop offset=".42" stop-color="#b2489a"/>
      <stop offset=".57" stop-color="#964a9c"/>
      <stop offset=".73" stop-color="#704ea0"/>
      <stop offset=".86" stop-color="#4b51a3"/>
    </linearGradient>
    <linearGradient id="linear-gradient-19" x1="67.2" y1="83.44" x2="-1.48" y2="153.47" gradientUnits="userSpaceOnUse">
      <stop offset=".15" stop-color="#4b51a3"/>
      <stop offset=".3" stop-color="#5c4fa1"/>
      <stop offset=".61" stop-color="#8a4b9f"/>
      <stop offset="1" stop-color="#cc469b"/>
    </linearGradient>
    <linearGradient id="linear-gradient-20" x1="68.66" y1="75.54" x2="56.13" y2="180.09" gradientUnits="userSpaceOnUse">
      <stop offset=".04" stop-color="#4a51a4"/>
      <stop offset=".05" stop-color="#4a50a3"/>
      <stop offset=".21" stop-color="#5250a3"/>
      <stop offset=".33" stop-color="#604ea2"/>
      <stop offset=".56" stop-color="#864b9f"/>
      <stop offset=".87" stop-color="#c3469b"/>
      <stop offset=".91" stop-color="#cc469b"/>
    </linearGradient>
    <linearGradient id="linear-gradient-21" x1="0" y1="116.26" x2="67.04" y2="116.26" gradientUnits="userSpaceOnUse">
      <stop offset=".11" stop-color="#c94799"/>
      <stop offset=".24" stop-color="#c34799"/>
      <stop offset=".41" stop-color="#b2489a"/>
      <stop offset=".61" stop-color="#964a9c"/>
      <stop offset=".82" stop-color="#704ea0"/>
      <stop offset="1" stop-color="#4b51a3"/>
    </linearGradient>
    <linearGradient id="linear-gradient-22" x1="39.5" y1="159.09" x2="90.44" y2="68.97" gradientUnits="userSpaceOnUse">
      <stop offset=".1" stop-color="#c44699"/>
      <stop offset=".36" stop-color="#8e4a9d"/>
      <stop offset=".63" stop-color="#5250a3"/>
      <stop offset=".78" stop-color="#5b50a2"/>
    </linearGradient>
  </defs>
  <path class="cls-4" d="m68.33,68.14s-31.04-10.47-32.69-12.86-.55-4.59,7.71-5.14,12.49-3.31,13.04-15.43-2.94-21.12,11.94-29.57c14.88-8.45,24.24-5.51,32.69,1.84s12.86,8.63,16.53,7.71,7.71-4.04,10.1-6.8,7.16-5.51,5.88,2.2-10.1,32.51-10.1,32.51l-55.1,25.53Z"/>
  <path class="cls-3" d="m135.8,203.14v-59.27c0-22.78-15.92-34.04-27.43-34.04h-12.98v59.76c0,22.04,13.71,34.29,40.41,33.55Z"/>
  <path class="cls-11" d="m108.37,109.83h-2.69v85.14c2.73,2.29,6,4.11,9.8,5.45v-89.3c-2.43-.86-4.85-1.3-7.1-1.3Z"/>
  <path class="cls-9" d="m115.47,111.13v89.3c3.01,1.07,6.36,1.83,10.04,2.27v-85.27c-3.09-2.98-6.58-5.07-10.04-6.3Z"/>
  <path class="cls-10" d="m95.39,109.83v59.76c0,11.07,3.46,19.66,10.29,25.39v-85.14h-10.29Z"/>
  <path class="cls-13" d="m109.65,102.85l3.67,4.59v32.33c0,22.04-16.71,28.65-28.65,28.65s-20.76-9-24.24-18.73-4.59-45.73-1.84-62.08,5.14-21.12,28.84-35.08l22.22,50.33Z"/>
  <path class="cls-27" d="m109.33,109.23l6.2,1.9v29.01c0,22.04-16.71,28.65-28.65,28.65s-20.76-9-24.24-18.73-4.59-45.73-1.84-62.08,5.14-21.12,28.84-35.08l19.7,56.34Z"/>
  <path class="cls-12" d="m105.61,93.7l-9-20.38v92.89c3.24-1.26,6.35-3.12,9-5.72v-66.79Z"/>
  <path class="cls-7" d="m109.84,75.12l32.88-4.59-.37,6.43,3.49,6.98s-5.14,23.14-32.51,23.51l-11.57-11.2,7.16-15.24.92-5.88Z"/>
  <path class="cls-8" d="m164.69,111.06s12.86-21.55.98-44.69-33.67-27.55-45.18-26.2c-12.12,1.42-10.9,7.96-10.9,7.96l2.69,29.39s40.9-3.67,52.41,33.55Z"/>
  <path class="cls-25" d="m137.02,78.73c-10.33-3.56-20.26-3.5-24.92-3.2l.18,1.97s40.9-3.67,52.41,33.55c-.49-10.78-13.47-27.43-27.67-32.33Z"/>
  <path class="cls-26" d="m156.61,78.73c-10.67-15.76-29.99-21.92-46.06-20.13l1.55,16.93c4.66-.3,14.59-.36,24.92,3.2,14.2,4.9,27.18,21.55,27.67,32.33,0,0,2.69-16.41-8.08-32.33Z"/>
  <path class="cls-24" d="m109.59,48.12l.85,9.26c4.3-.49,46.67-4.03,55.97,43.15,0,0,6.93-16.78-6.61-36.98-13.74-20.49-42.65-19.86-49.86-17.03-.4.95-.34,1.6-.34,1.6Z"/>
  <path class="cls-23" d="m164.98,110.11c1.49-5.34,1.35-11.01-.21-16.33-11.82-40.08-50.23-36.86-54.32-36.4l.11,1.22c16.07-1.79,35.39,4.37,46.06,20.13,10.78,15.92,8.08,32.33,8.08,32.33.1-.31.19-.63.28-.95Z"/>
  <path class="cls-14" d="m129.86,80.99c-7.71-2.2-16.35-3.12-13.96,5.33,1.58,5.6,8.16,12.72,14.29,17.16,8.58-4.5,12.7-11.76,14.47-16.06-1.97-1.12-8.38-4.6-14.8-6.43Z"/>
  <path class="cls-19" d="m113.33,107.44l-3.67-4.59-4.04-9.15v66.79c4.55-4.47,7.71-11.14,7.71-20.72v-32.33Z"/>
  <path class="cls-21" d="m113.33,107.44l-3.67-4.59-4.04-9.15v66.79c4.55-4.47,7.71-11.14,7.71-20.72v-32.33Z"/>
  <path class="cls-22" d="m87.43,52.53c-1.22.72-2.37,1.41-3.47,2.08l2.74,32.09.55,7.9v65.72c3.03-.24,6.26-.89,9.37-2.1v-84.88l-9.18-20.8Z"/>
  <path class="cls-2" d="m113.33,42.3v65.14s-20.02.92-29.02-17.45-.73-32.51,3.12-37.47l25.9-10.22Z"/>
  <path class="cls-5" d="m113.33,107.44v-6.02c-6.47-.98-15.98-3.75-23.33-11.42-8.35-8.72-7.99-22.17-6.9-30.1-3.05,7.02-4.93,17.58,1.2,30.1,9,18.37,29.02,17.45,29.02,17.45Z"/>
  <path class="cls-15" d="m82.38,55.56c-4.9,5.71-14.79,20.63-15.89,48.88l13.22-2.2s-8.17-19.6,4.24-47.64c-.54.33-1.06.65-1.57.96Z"/>
  <path class="cls-20" d="m0,146.75s4.96-27.37,21.49-48.49,37.47-20.94,41.88-20.57c0,0,5.33,2.02,5.33,18C68.69,110.59,59.51,145.83,0,146.75Z"/>
  <path class="cls-17" d="m53.27,171.06s-14.69-31.59-12-56.57,22.1-36.8,22.1-36.8c0,0,25.07,9.73,22.96,39.49-1.95,27.43-24.24,48.73-33.06,53.88Z"/>
  <path class="cls-18" d="m0,146.75c24.27-.37,40.16-6.46,50.48-14.54,21.16-22.44,16.01-46.44,16.01-46.44,0,0-1.47,19.84-21.67,34.16-16.28,11.55-34.59,12.83-41.08,12.9-2.7,8.21-3.73,13.92-3.73,13.92Z"/>
  <path class="cls-16" d="m67.96,84.85s5.63,17.14-1.22,33.55c-6.65,15.9-22.49,21.91-23.46,22.27,1.41,6.55,3.27,12.66,4.99,17.66,10.94-10.19,25.87-30.97,27.04-47.77,1.22-17.63-7.35-25.71-7.35-25.71Z"/>
  <path class="cls-1" d="m92.39,55.65l-4.96-3.12s-8.82,7.59-9.06,25.96c-.24,18.37,14.26,34.42,34.95,34.66v-28.79l-19.65-28.53-1.29-.18Z"/>
  <path class="cls-2" d="m97.72,31.49s-.05,0-.08,0l-28.74-1.82c-.86-.05-1.5-.77-1.45-1.59.05-.83.78-1.47,1.65-1.4l28.74,1.82c.86.05,1.5.77,1.45,1.59-.05.8-.75,1.42-1.57,1.4Z"/>
  <path class="cls-2" d="m65.51,33.58c-.47,0-.93-.22-1.22-.63-.48-.67-.33-1.61.35-2.09,1.21-.87,2.47-2.02,2.78-2.54-.18-.5-1.11-1.87-2.06-2.97-.54-.63-.48-1.57.15-2.12.62-.54,1.57-.48,2.12.15,1.05,1.21,2.82,3.47,2.82,5.02,0,1.65-2.21,3.57-4.06,4.89-.26.19-.57.28-.87.28Z"/>
  <path class="cls-2" d="m101.03,25.37c.47,0,.93.2,1.22.59.48.63.33,1.51-.35,1.96-1.21.81-2.47,1.9-2.78,2.38.18.47,1.11,1.76,2.06,2.78.54.59.48,1.47-.15,1.98-.62.51-1.57.45-2.12-.14-1.05-1.13-2.82-3.25-2.82-4.71,0-1.55,2.21-3.35,4.06-4.59.26-.18.57-.26.87-.26Z"/>
  <path class="cls-2" d="m94.12,17.04s-.03.04-.04.06l-16.13,23.86c-.48.71-1.42.91-2.11.44-.69-.47-.87-1.42-.37-2.13l16.13-23.85c.48-.71,1.42-.91,2.11-.44.66.45.84,1.36.41,2.07Z"/>
  <path class="cls-2" d="m78.76,45.36c-.24.4-.64.7-1.11.76-.77.11-1.43-.46-1.46-1.26-.07-1.44-.33-3.06-.59-3.56-.48-.08-2.03.09-3.36.41-.76.18-1.47-.31-1.58-1.1-.11-.79.42-1.58,1.19-1.76,1.48-.35,4.15-.83,5.36-.12,1.29.76,1.68,3.55,1.78,5.75.01.31-.07.62-.22.88Z"/>
  <path class="cls-2" d="m90.33,11.61c.24-.4.65-.7,1.13-.76.79-.1,1.47.48,1.51,1.29.09,1.46.39,3.09.65,3.6.5.09,2.08-.07,3.44-.36.78-.17,1.51.34,1.63,1.13.12.8-.41,1.58-1.19,1.75-1.51.33-4.23.78-5.49.04-1.33-.78-1.77-3.6-1.9-5.82-.02-.32.06-.62.22-.88Z"/>
  <path class="cls-2" d="m78.99,17.54c-3.14,1.37-5.15,4.44-5.55,7.84-.11.96-.17,2.03-.1,3.14.24,4.04,5.13,5.99,6.46,8.48,2.85,5.33,6.64,6.46,10.93,3.64s.49-10.9.98-14.69-2.82-9.06-9.8-9.06c-1.04,0-2.03.26-2.92.65Z"/>
  <circle class="cls-4" cx="78.73" cy="28.16" r="3.55"/>
  <circle class="cls-4" cx="86.57" cy="24.61" r="3.55"/>
  <path class="cls-4" d="m83.52,32.48c.12.59.79.69,1.08.18.15-.27.38-.55.71-.7.83-.37,1.43.25,1.43-.62s-2.39-2.23-2.86-1.97c-.53.28-.58,2.02-.36,3.1Z"/>
  <circle class="cls-6" cx="100.78" cy="61.46" r="6.49"/>
  <circle class="cls-2" cx="101.88" cy="57.79" r="2.45"/>
</svg>